<svg width="50" height="49" viewBox="0 0 50 49" fill="none" xmlns="http://www.w3.org/2000/svg">
<path d="M50 27.3677V20.8715L44.0229 18.8213C43.6104 17.4405 43.0396 16.124 42.3333 14.8918L45.0583 9.36242L40.2979 4.76965L34.5667 7.39668C33.2896 6.7153 31.9229 6.16457 30.4937 5.76659L28.3667 0H21.6333L19.5062 5.76659C18.0771 6.16457 16.7104 6.71329 15.4333 7.39668L9.70208 4.76764L4.94167 9.36041L7.66667 14.8918C6.96042 16.124 6.3875 17.4405 5.97708 18.8213L0 20.8715V27.3677L5.97708 29.4179C6.3875 30.7987 6.96042 32.1152 7.66667 33.3474L4.94167 38.8768L9.70208 43.4716L15.4333 40.8425C16.7104 41.5239 18.0771 42.0746 19.5062 42.4726L21.6333 48.2392H28.3667L30.4937 42.4726C31.925 42.0746 33.2896 41.5239 34.5667 40.8425L40.2979 43.4716L45.0583 38.8768L42.3333 33.3474C43.0396 32.1152 43.6104 30.7987 44.0229 29.4179L50 27.3677ZM25 32.1595C20.3979 32.1595 16.6667 28.5596 16.6667 24.1196C16.6667 19.6796 20.3979 16.0797 25 16.0797C29.6021 16.0797 33.3333 19.6796 33.3333 24.1196C33.3333 28.5596 29.6021 32.1595 25 32.1595Z" fill="white"/>
</svg>
